<?xml version="1.0" encoding="UTF-8"?>
<svg width="24px" height="24px" viewBox="0 0 24 24" version="1.1" xmlns="http://www.w3.org/2000/svg" xmlns:xlink="http://www.w3.org/1999/xlink">
    <title>delete</title>
    <g id="delete" stroke="none" stroke-width="1" fill="none" fill-rule="evenodd">
        <path d="M6,5 L18,5 L18,5 L18,19 C18,20.1045695 17.1045695,21 16,21 L8,21 C6.8954305,21 6,20.1045695 6,19 L6,5 Z M8,7 L8,19 L16,19 L16,7 L8,7 Z M10,9 C10.5522847,9 11,9.44771525 11,10 L11,16 C11,16.5522847 10.5522847,17 10,17 C9.44771525,17 9,16.5522847 9,16 L9,10 C9,9.44771525 9.44771525,9 10,9 Z M14,9 C14.5522847,9 15,9.44771525 15,10 L15,16 C15,16.5522847 14.5522847,17 14,17 C13.4477153,17 13,16.5522847 13,16 L13,10 C13,9.44771525 13.4477153,9 14,9 Z M9,3 L15,3 C15.5522847,3 16,3.44771525 16,4 C16,4.55228475 15.5522847,5 15,5 L9,5 C8.44771525,5 8,4.55228475 8,4 C8,3.44771525 8.44771525,3 9,3 Z" id="shape" fill="#FF3B30" fill-rule="nonzero"></path>
    </g>
</svg> 