<?xml version="1.0" encoding="UTF-8"?>
<svg width="24px" height="24px" viewBox="0 0 24 24" version="1.1" xmlns="http://www.w3.org/2000/svg" xmlns:xlink="http://www.w3.org/1999/xlink">
    <title>edit</title>
    <g id="edit" stroke="none" stroke-width="1" fill="none" fill-rule="evenodd">
        <path d="M16.7573593,3.18198052 L19.8180795,6.24271017 C20.3905366,6.81516734 20.3905366,7.74025999 19.8180795,8.31271716 L8.31271716,19.8180795 C8.04929057,20.0814561 7.70783695,20.2547961 7.34183324,20.3117181 L3.83112135,20.9190173 C3.35000828,20.9997293 2.87798174,20.8157694 2.5858527,20.4236403 C2.29372367,20.0315113 2.10976384,19.5594847 2.19047575,19.0783717 L2.79777498,15.5681097 C2.85469695,15.202106 3.02803688,14.8606524 3.29146347,14.5972758 L14.7968258,3.18198052 C15.374283,2.60438944 16.2993021,2.60438944 16.7573593,3.18198052 Z M14.5857864,5.82842712 L5,15.4142136 L5,15.4142136 L5,17 L6.58578644,17 L16.1715729,7.41421356 L14.5857864,5.82842712 Z" id="shape" fill="#007AFF" fill-rule="nonzero"></path>
    </g>
</svg> 