<?xml version="1.0" encoding="UTF-8"?>
<svg width="24px" height="24px" viewBox="0 0 24 24" version="1.1" xmlns="http://www.w3.org/2000/svg" xmlns:xlink="http://www.w3.org/1999/xlink">
    <title>key</title>
    <g id="key" stroke="none" stroke-width="1" fill="none" fill-rule="evenodd">
        <path d="M7,15 C4.23857625,15 2,12.7614237 2,10 C2,7.23857625 4.23857625,5 7,5 C9.76142375,5 12,7.23857625 12,10 C12,10.7946489 11.8143101,11.5493354 11.4839228,12.2219936 L12.0014233,12.7394941 L14.0024233,12.7394941 C14.5547081,12.7394941 15.0024233,13.1872093 15.0024233,13.7394941 L15.0024233,14.7394941 L16.0024233,14.7394941 C16.5547081,14.7394941 17.0024233,15.1872093 17.0024233,15.7394941 L17.0024233,16.7394941 L18.0024233,16.7394941 C18.5547081,16.7394941 19.0024233,17.1872093 19.0024233,17.7394941 L19.0024233,18.7394941 C19.0024233,19.2917789 18.5547081,19.7394941 18.0024233,19.7394941 L11.0024233,19.7394941 C10.7200971,19.7394941 10.4489026,19.6317891 10.2425356,19.4386916 L10.2425356,19.4386916 L7,16.196156 C4.23857625,16.196156 2,13.9575798 2,11.196156 C2,8.43473228 4.23857625,6.19615602 7,6.19615602 C9.76142375,6.19615602 12,8.43473228 12,11.196156 C12,11.9908049 11.8143101,12.7454914 11.4839228,13.4181496 L12.0014233,13.9356501 L14.0024233,13.9356501 C14.5547081,13.9356501 15.0024233,14.3833654 15.0024233,14.9356501 L15.0024233,15.9356501 L16.0024233,15.9356501 C16.5547081,15.9356501 17.0024233,16.3833654 17.0024233,16.9356501 L17.0024233,17.9356501 L18.0024233,17.9356501 C18.5547081,17.9356501 19.0024233,18.3833654 19.0024233,18.9356501 L19.0024233,19.9356501 C19.0024233,20.4879349 18.5547081,20.9356501 18.0024233,20.9356501 L11.0024233,20.9356501 C10.7200971,20.9356501 10.4489026,20.8279451 10.2425356,20.6348476 L10.2425356,20.6348476 L7,17.392312 C4.23857625,17.392312 2,15.1537358 2,12.392312 C2,9.63088828 4.23857625,7.39231202 7,7.39231202 C9.76142375,7.39231202 12,9.63088828 12,12.392312 C12,13.1869609 11.8143101,13.9416474 11.4839228,14.6143056 L12.0014233,15.1318061 L14.0024233,15.1318061 C14.5547081,15.1318061 15.0024233,15.5795214 15.0024233,16.1318061 L15.0024233,17.1318061 L16.0024233,17.1318061 C16.5547081,17.1318061 17.0024233,17.5795214 17.0024233,18.1318061 L17.0024233,19.1318061 L18.0024233,19.1318061 C18.5547081,19.1318061 19.0024233,19.5795214 19.0024233,20.1318061 L19.0024233,21.1318061 C19.0024233,21.6840909 18.5547081,22.1318061 18.0024233,22.1318061 L11.0024233,22.1318061 C10.7200971,22.1318061 10.4489026,22.0241011 10.2425356,21.8310036 L10.2425356,21.8310036 L7,18.588468 C6.38584519,18.588468 5.79236195,18.4969632 5.24077034,18.3286612 C3.55252069,17.8333476 2.12641455,16.550222 1.44106697,14.9323208 C1.15262762,14.2569826 1,13.5243458 1,12.764312 C1,12.0042783 1.15262762,11.2716414 1.44106697,10.5963033 C2.12641455,8.97840208 3.55252069,7.69527651 5.24077034,7.20035859 C5.79236195,7.0320566 6.38584519,6.94055186 7,6.94055186 C7.61415481,6.94055186 8.20763805,7.0320566 8.75922966,7.20035859 C10.4474793,7.69527651 11.8735854,8.97840208 12.558933,10.5963033 C12.8473724,11.2716414 13,12.0042783 13,12.764312 C13,13.5243458 12.8473724,14.2569826 12.558933,14.9323208 C11.8735854,16.550222 10.4474793,17.8333476 8.75922966,18.3286612 C8.20763805,18.4969632 7.61415481,18.588468 7,18.588468 Z M7,13 C8.1045695,13 9,12.1045695 9,11 C9,9.8954305 8.1045695,9 7,9 C5.8954305,9 5,9.8954305 5,11 C5,12.1045695 5.8954305,13 7,13 Z" id="shape" fill="#5856D6" fill-rule="nonzero"></path>
    </g>
</svg> 